<?xml version="1.0" encoding="utf-8"?>
<!-- Generator: Adobe Illustrator 28.0.0, SVG Export Plug-In . SVG Version: 6.00 Build 0)  -->
<svg version="1.1" id="Layer_1" xmlns="http://www.w3.org/2000/svg" xmlns:xlink="http://www.w3.org/1999/xlink" x="0px" y="0px"
	 viewBox="0 0 30 30" style="enable-background:new 0 0 30 30;" xml:space="preserve">
<style type="text/css">
	.st0{fill:#0255a3;}
</style>
<path class="st0" d="M15,0C6.7,0,0,6.7,0,15c0,8.3,6.7,15,15,15c8.3,0,15-6.7,15-15C30,6.7,23.3,0,15,0z M8,17.9
	c-0.3,0-0.6-0.2-0.8-0.5c-0.1-0.2-0.2-0.5-0.2-0.9c-0.1-1.1,0-2.8,0.4-3.4c0.2-0.3,0.5-0.5,0.8-0.5c0.2,0,0.2,0,3.7,1.4l0,0
	c0.1,0,0.3,0.1,1,0.4c0.4,0.2,0.7,0.6,0.7,1.1c0,0.5-0.3,0.9-0.7,1c-0.1,0-0.4,0.1-1.4,0.4C8.5,17.8,8.3,17.9,8,17.9
	C8.1,17.9,8,17.9,8,17.9z M15.2,19.8c0,3.3,0,3.3-0.1,3.5c-0.1,0.3-0.4,0.5-0.7,0.6c-0.1,0-0.1,0-0.2,0c-1,0-3.3-0.9-3.9-1.5
	c-0.1-0.2-0.2-0.3-0.2-0.5c0-0.1,0-0.3,0-0.4c0.1-0.2,0.1-0.2,2.5-3l0.1-0.1c0.2-0.2,0.6-0.7,0.6-0.7c0.3-0.3,0.8-0.5,1.2-0.3
	c0.4,0.2,0.7,0.6,0.7,1C15.2,18.4,15.2,19.8,15.2,19.8z M14.5,13.2c-0.1,0-0.2,0-0.3,0c-0.4,0-0.8-0.3-1.2-0.9
	c-0.4-0.7-4.2-6.6-4.3-6.8c-0.1-0.3,0-0.7,0.3-0.9C9.6,3.9,13.1,3,14,3.2c0.4,0.1,0.6,0.3,0.7,0.6l0,0c0.1,0.3,0.5,6.4,0.5,7.8
	C15.3,12.5,15,13.1,14.5,13.2z M16.4,13.3c0,0,0.8-1.1,0.8-1.1c1.9-2.6,2-2.7,2.1-2.8c0.3-0.2,0.6-0.2,0.9,0
	c0.8,0.4,2.3,2.7,2.4,3.6l0,0l0,0c0,0.3-0.1,0.6-0.4,0.8c-0.2,0.1-0.2,0.1-3.8,1c0,0-1,0.3-1.5,0.2c-0.3-0.1-0.5-0.2-0.7-0.5
	C16.1,14.1,16.2,13.6,16.4,13.3z M22.9,18.9c-0.1,0.9-1.9,3.1-2.7,3.4c-0.1,0.1-0.3,0.1-0.4,0.1c-0.2,0-0.4-0.1-0.5-0.2
	c-0.2-0.1-0.2-0.2-2.1-3.3L16.6,18c-0.2-0.4-0.2-0.9,0.1-1.3c0.3-0.4,0.8-0.5,1.2-0.4c0.1,0,0.8,0.3,1.3,0.4c3.2,1,3.2,1.1,3.3,1.2
	C22.8,18.2,22.9,18.5,22.9,18.9z"/>
</svg>
