<?xml version="1.0" encoding="utf-8"?>
<!-- Generator: Adobe Illustrator 28.0.0, SVG Export Plug-In . SVG Version: 6.00 Build 0)  -->
<svg version="1.1" id="Layer_1" xmlns="http://www.w3.org/2000/svg" xmlns:xlink="http://www.w3.org/1999/xlink" x="0px" y="0px"
	 viewBox="0 0 30 30" style="enable-background:new 0 0 30 30;" xml:space="preserve">
<style type="text/css">
	.st0{fill:#006AFF;}
	.st1{fill:#FFFFFF;}
</style>
<circle class="st0" cx="15" cy="15" r="15"/>
<path class="st1" d="M17.7,9.8c0.1,0,0.1,0,0.2,0.1c0.3,0.3,1.1,1.3,1.4,1.6c0,0.1,0,0.1,0,0.1c-1.7,1.4-3.7,3.3-4.7,4.6
	c0,0,0,0,0,0c1.9-0.8,6.3-2.1,8.2-2.5v-2.5L15,5.2l-7.8,6.1v2.7C9.6,12.6,15.2,10.4,17.7,9.8z M11.4,20.3c-0.1,0-0.1,0-0.2,0
	l-1.4-1.7c0,0,0-0.1,0-0.1c1.1-1.6,3.4-4.2,4.9-5.3c0,0,0,0,0,0c-1.5,0.5-5.8,2.4-7.4,3.2v5.9h15.5v-5.6
	C20.6,17,14.3,18.8,11.4,20.3L11.4,20.3z"/>
</svg>
